<?xml version="1.0" encoding="utf-8"?>
<!-- Generator: Adobe Illustrator 22.0.1, SVG Export Plug-In . SVG Version: 6.00 Build 0)  -->
<svg version="1.1"
	 id="svg8" inkscape:version="0.92.0 r15299" sodipodi:docname="genvid_overlay.svg" xmlns:cc="http://creativecommons.org/ns#" xmlns:dc="http://purl.org/dc/elements/1.1/" xmlns:inkscape="http://www.inkscape.org/namespaces/inkscape" xmlns:rdf="http://www.w3.org/1999/02/22-rdf-syntax-ns#" xmlns:sodipodi="http://sodipodi.sourceforge.net/DTD/sodipodi-0.dtd" xmlns:svg="http://www.w3.org/2000/svg"
	 xmlns="http://www.w3.org/2000/svg" xmlns:xlink="http://www.w3.org/1999/xlink" x="0px" y="0px" viewBox="0 0 324.1 236.2"
	 style="enable-background:new 0 0 324.1 236.2;" xml:space="preserve">
<style type="text/css">
	.st0{fill:none;stroke:#F16A3F;stroke-width:10;stroke-miterlimit:10;}
	.st1{fill:#F16A3F;}
</style>
<sodipodi:namedview  bordercolor="#666666" borderopacity="1.0" id="base" inkscape:current-layer="layer1" inkscape:cx="-102.61863" inkscape:cy="397.59898" inkscape:document-units="mm" inkscape:pageopacity="0.0" inkscape:pageshadow="2" inkscape:window-height="1057" inkscape:window-maximized="1" inkscape:window-width="1846" inkscape:window-x="-8" inkscape:window-y="-8" inkscape:zoom="0.35" pagecolor="#ffffff" showgrid="false">
	</sodipodi:namedview>
<path id="contour" class="st0" d="M52.4,14.2h219.3c21.1,0,38.2,17.1,38.2,38.2v131.4c0,21.1-17.1,38.2-38.2,38.2H52.4
	c-21.1,0-38.2-17.1-38.2-38.2V52.4C14.2,31.3,31.3,14.2,52.4,14.2z"/>
<path class="st1" d="M174.4,118h-12.7l-6.3-6.3h-12.7l-25.3,0L130.2,99l-6.3-6.3l-12.7,12.7L98.5,118l12.7,12.7l12.7,12.7l6.3-6.3
	l-12.7-12.7l25.3,0l9.9,9.9c1.5,1.5,1.5,4,0,5.5l-3.6,3.6L136.5,156l-9.9,9.9c-1.5,1.5-4,1.5-5.5,0l-9.9-9.9l-12.7-12.7l-12.7-12.7
	l-9.9-9.9c-1.5-1.5-1.5-4,0-5.5l9.9-9.9l12.7-12.7L111.2,80l9.9-9.9c1.5-1.5,4-1.5,5.5,0l9.9,9.9l25.3,25.3l6.3,6.3L174.4,118z
	 M168.1,124.3l-6.3-6.3h-12.7l6.3,6.3l6.3,6.3 M161.8,130.7l25.3,25.3l9.9,9.9c1.5,1.5,4,1.5,5.5,0l9.9-9.9l12.7-12.7l12.7-12.7
	l9.9-9.9c1.5-1.5,1.5-4,0-5.5l-9.9-9.9l-12.7-12.7L212.4,80l-9.9-9.9c-1.5-1.5-4-1.5-5.5,0l-9.9,9.9l-12.7,12.7l-3.6,3.6
	c-1.5,1.5-1.5,4,0,5.5l9.9,9.9l25.3,0L193.4,99l6.3-6.3l12.7,12.7l12.7,12.7l-12.7,12.7l-12.7,12.7l-6.3-6.3l12.7-12.7l-25.3,0
	h-12.7"/>
</svg>
